<svg xmlns="http://www.w3.org/2000/svg" viewBox="0 0 450 80">
  <g fill="#2D2D2D">
    <!-- G -->
    <path d="M45,15 C25,15 10,30 10,45 C10,60 25,75 45,75 C60,75 72,65 75,52 L50,52 L50,42 L88,42 L88,50 C85,68 67,85 45,85 C18,85 0,67 0,45 C0,23 18,5 45,5 C62,5 76,14 82,28 L70,33 C66,23 57,15 45,15 Z"/>
    <!-- E -->
    <path d="M100,7 L155,7 L155,17 L112,17 L112,40 L150,40 L150,50 L112,50 L112,73 L157,73 L157,83 L100,83 Z"/>
    <!-- S -->
    <path d="M195,85 C175,85 162,75 160,60 L172,58 C174,70 182,77 195,77 C210,77 218,70 218,60 C218,50 210,46 193,42 C173,37 163,28 163,15 C163,2 176,-5 193,-5 C210,-5 223,5 225,18 L213,20 C211,10 203,3 193,3 C180,3 175,10 175,17 C175,27 183,31 200,35 C220,40 230,49 230,62 C230,78 216,85 195,85 Z" transform="translate(0, 5)"/>
    <!-- P -->
    <path d="M245,7 L285,7 C305,7 318,18 318,35 C318,52 305,63 285,63 L257,63 L257,83 L245,83 Z M257,17 L257,53 L283,53 C297,53 306,45 306,35 C306,25 297,17 283,17 Z"/>
    <!-- E -->
    <path d="M330,7 L385,7 L385,17 L342,17 L342,40 L380,40 L380,50 L342,50 L342,73 L387,73 L387,83 L330,83 Z"/>
    <!-- R -->
    <path d="M400,7 L440,7 C460,7 473,18 473,33 C473,45 465,54 452,57 L478,83 L463,83 L439,59 L412,59 L412,83 L400,83 Z M412,17 L412,49 L438,49 C452,49 461,42 461,33 C461,24 452,17 438,17 Z"/>
    <!-- A -->
    <path d="M530,83 L517,83 L507,58 L472,58 L462,83 L449,83 L483,7 L496,7 Z M475,48 L504,48 L490,15 Z"/>
  </g>
</svg>
